<svg width="13" height="25" viewBox="0 0 13 25" fill="none" xmlns="http://www.w3.org/2000/svg">
<path d="M3.62572 13.5757C3.53135 13.5757 1.5515 13.5763 0.638375 13.5754C0.168286 13.5751 0.000569093 13.4061 0.000569093 12.933C-3.20433e-05 11.7178 -0.000332612 10.5026 0.000569093 9.28745C0.000869662 8.82036 0.178205 8.64213 0.642283 8.64183C1.55541 8.64122 3.52443 8.64153 3.62572 8.64153C3.62572 8.55827 3.62542 6.80385 3.62572 5.99592C3.62633 4.80146 3.83943 3.6581 4.44628 2.61122C5.06755 1.5397 5.97166 0.805708 7.13035 0.381306C7.87245 0.109292 8.64281 0.000786602 9.4303 0.000185465C10.4156 -0.000415672 11.4008 0.000486024 12.3864 0.00228943C12.8099 0.00289057 12.9977 0.190145 12.9986 0.616651C13.0005 1.75971 13.0005 2.90277 12.9986 4.04553C12.998 4.47655 12.818 4.64968 12.3849 4.65449C11.5773 4.6632 10.769 4.65779 9.96231 4.69025C9.14746 4.69025 8.71885 5.08821 8.71885 5.9316C8.69932 6.82369 8.71074 7.71668 8.71074 8.64122C8.78708 8.64122 11.106 8.64092 12.1898 8.64122C12.6821 8.64122 12.8505 8.81044 12.8505 9.30548C12.8505 10.5141 12.8502 11.723 12.8493 12.9315C12.849 13.4194 12.6909 13.5751 12.1955 13.5754C11.1117 13.576 8.80181 13.5757 8.70082 13.5757V23.3577C8.70082 23.8791 8.53671 24.0454 8.02214 24.0454C6.76756 24.0454 5.51269 24.0457 4.25812 24.0454C3.80336 24.0454 3.62602 23.8686 3.62602 23.4139C3.62572 20.2281 3.62572 13.6875 3.62572 13.5757Z" fill="#3D6AD6"/>
</svg>
