<svg width="23" height="23" viewBox="0 0 23 23" fill="none" xmlns="http://www.w3.org/2000/svg">
<path d="M5.39062 11.4999C5.39062 10.3603 5.70458 9.29285 6.25003 8.37883V4.50171H2.37291C0.834109 6.50019 0 8.93581 0 11.4999C0 14.0639 0.834109 16.4995 2.37291 18.498H6.25003V14.6209C5.70458 13.7069 5.39062 12.6394 5.39062 11.4999Z" fill="#FBBD00"/>
<path d="M11.5 17.6094L8.80469 20.3047L11.5 23C14.0641 23 16.4997 22.1659 18.4982 20.6271V16.7542H14.6252C13.7031 17.3016 12.6312 17.6094 11.5 17.6094Z" fill="#0F9D58"/>
<path d="M6.25004 14.6211L2.37292 18.4982C2.67758 18.8939 3.00933 19.2728 3.3683 19.6318C5.54037 21.8038 8.42826 23.0001 11.5 23.0001V17.6094C9.27081 17.6094 7.31703 16.4091 6.25004 14.6211Z" fill="#31AA52"/>
<path d="M23 11.5001C23 10.8004 22.9367 10.0995 22.8117 9.41675L22.7106 8.86426H11.5V14.2549H16.9559C16.426 15.3088 15.6114 16.1686 14.6251 16.7542L18.4981 20.6272C18.8938 20.3226 19.2727 19.9908 19.6317 19.6318C21.8038 17.4597 23 14.5718 23 11.5001Z" fill="#3C79E6"/>
<path d="M15.82 7.18L16.2964 7.65644L20.1082 3.84473L19.6318 3.36829C17.4597 1.19622 14.5718 0 11.5 0L8.80469 2.69531L11.5 5.39063C13.1318 5.39063 14.666 6.02609 15.82 7.18Z" fill="#CF2D48"/>
<path d="M11.5 5.39062V0C8.42824 0 5.54035 1.19622 3.36824 3.36824C3.00927 3.72721 2.67752 4.10613 2.37286 4.50185L6.24998 8.37896C7.31701 6.59094 9.2708 5.39062 11.5 5.39062Z" fill="#EB4132"/>
</svg>
