<?xml version="1.0" standalone="no"?><svg xmlns="http://www.w3.org/2000/svg" viewBox="0 0 1440 320"><path fill="#3A0DAA" fill-opacity="1" d="M0,96L16,90.7C32,85,64,75,96,85.3C128,96,160,128,192,128C224,128,256,96,288,90.7C320,85,352,107,384,101.3C416,96,448,64,480,58.7C512,53,544,75,576,122.7C608,171,640,245,672,256C704,267,736,213,768,197.3C800,181,832,203,864,213.3C896,224,928,224,960,224C992,224,1024,224,1056,234.7C1088,245,1120,267,1152,272C1184,277,1216,267,1248,266.7C1280,267,1312,277,1344,272C1376,267,1408,245,1424,234.7L1440,224L1440,320L1424,320C1408,320,1376,320,1344,320C1312,320,1280,320,1248,320C1216,320,1184,320,1152,320C1120,320,1088,320,1056,320C1024,320,992,320,960,320C928,320,896,320,864,320C832,320,800,320,768,320C736,320,704,320,672,320C640,320,608,320,576,320C544,320,512,320,480,320C448,320,416,320,384,320C352,320,320,320,288,320C256,320,224,320,192,320C160,320,128,320,96,320C64,320,32,320,16,320L0,320Z"></path></svg>